<?xml version="1.0" encoding="UTF-8" standalone="no"?>
<!-- Created with Inkscape (http://www.inkscape.org/) -->

<svg
   width="417.54449mm"
   height="169.24854mm"
   viewBox="0 0 417.54449 169.24854"
   version="1.1"
   id="svg1"
   xml:space="preserve"
   inkscape:version="1.4.2 (f4327f4, 2025-05-13)"
   sodipodi:docname="welcome.svg"
   xmlns:inkscape="http://www.inkscape.org/namespaces/inkscape"
   xmlns:sodipodi="http://sodipodi.sourceforge.net/DTD/sodipodi-0.dtd"
   xmlns="http://www.w3.org/2000/svg"
   xmlns:svg="http://www.w3.org/2000/svg"><sodipodi:namedview
     id="namedview1"
     pagecolor="#ffffff"
     bordercolor="#000000"
     borderopacity="0.25"
     inkscape:showpageshadow="2"
     inkscape:pageopacity="0.0"
     inkscape:pagecheckerboard="0"
     inkscape:deskcolor="#d1d1d1"
     inkscape:document-units="mm"
     showguides="false"
     inkscape:zoom="0.76167929"
     inkscape:cx="821.21177"
     inkscape:cy="170.01906"
     inkscape:window-width="1920"
     inkscape:window-height="1051"
     inkscape:window-x="-9"
     inkscape:window-y="-9"
     inkscape:window-maximized="1"
     inkscape:current-layer="layer1" /><defs
     id="defs1" /><g
     inkscape:label="Layer 1"
     inkscape:groupmode="layer"
     id="layer1"
     transform="translate(112.23552,-60.106558)"><path
       style="fill:#000000"
       d="m -77.668341,228.74939 c -0.891834,-1.36111 -0.514665,-1.90261 3.153908,-4.52808 1.872952,-1.3404 4.496654,-3.34625 5.83045,-4.45743 1.333795,-1.11118 5.278255,-4.11908 8.765467,-6.68422 7.798491,-5.73645 9.690268,-7.26254 12.566229,-10.13716 2.383143,-2.38203 6.738889,-7.4685 8.806971,-10.28444 1.9679,-2.67953 1.991411,-2.91114 0.839564,-8.27085 -1.261467,-5.86979 -2.150303,-8.59135 -4.095548,-12.54033 -3.416459,-6.93565 -6.228339,-10.59991 -20.912717,-27.25209 -13.550464,-15.36631 -20.146257,-23.42687 -31.568117,-38.57864 -6.964126,-9.23833 -12.234796,-17.316485 -16.566216,-25.390409 l -1.38717,-2.585721 1.10907,-3.499696 c 1.43127,-4.516399 2.51658,-7.121126 3.25696,-7.816685 l 0.59166,-0.555831 1.18526,0.952012 c 0.6519,0.523607 2.31636,1.701516 3.69881,2.617576 1.38245,0.91606 3.210331,2.373704 4.06196,3.239209 l 1.548416,1.573646 -0.25992,4.330606 -0.259919,4.330605 1.465828,2.248958 c 2.464328,3.780914 16.440874,22.12561 20.964531,27.51667 1.03791,1.23692 3.028076,3.6777 4.422591,5.42395 1.394515,1.74625 3.320448,4.05802 4.279853,5.13725 9.789263,11.01197 19.305015,22.49893 22.442304,27.09127 2.822037,4.13088 5.164151,9.70091 7.27409,17.29928 l 0.867561,3.12429 v 8.11092 c 0,4.461 0.08887,7.97335 0.197485,7.8052 0.108617,-0.16814 0.569336,-1.25821 1.023821,-2.42237 0.747212,-1.91399 0.811858,-2.30751 0.675131,-4.10965 -0.224028,-2.95281 -5.01946,-38.71932 -6.543852,-48.80702 -1.471349,-9.73669 -2.164892,-13.62775 -4.621615,-25.92917 -0.929986,-4.65666 -2.108932,-11.374647 -2.61988,-14.928852 -0.510949,-3.554205 -1.309897,-8.481304 -1.775442,-10.94911 -0.975747,-5.172344 -1.058248,-4.446504 1.244493,-10.948931 1.71263,-4.836082 2.002464,-5.374143 2.894859,-5.374143 1.279116,0 1.861758,1.744546 3.048601,9.128125 1.317271,8.194992 2.834314,16.684229 4.50558,25.212824 2.915737,14.879227 5.823318,32.678427 6.729815,41.197587 0.232266,2.18282 0.710116,6.05235 1.061889,8.59896 0.351773,2.54662 1.183233,9.01502 1.847688,14.37424 1.990021,16.05067 2.778576,19.04452 6.260067,23.76719 2.485402,3.37147 4.523609,4.69806 8.548441,5.56386 2.556119,0.54986 10.4164524,0.96134 12.15034249,0.63607 L -5.3666844e-6,191.79894 2.1576295e-4,188.70207 C 6.3074673e-4,182.89033 0.8970819,175.6604 2.1682914,171.21642 c 1.6833561,-5.8848 3.3127403,-9.17211 6.848359,-13.81669 2.9018296,-3.812 4.8776816,-4.92473 7.2870246,-4.10378 2.113943,0.72029 2.056979,0.77119 3.00172,-2.68189 1.543863,-5.64288 3.581747,-9.23234 7.401892,-13.03742 6.008133,-5.98445 10.080463,-8.16951 14.675967,-7.87459 3.656038,0.23463 6.081865,1.91773 9.292843,6.44758 2.413437,3.40473 3.857307,4.95882 6.014927,6.47405 4.407081,3.09497 9.554328,3.31734 14.170334,0.61218 1.811658,-1.0617 4.13295,-3.60894 7.425439,-8.1482 1.645295,-2.26832 3.492417,-4.67756 4.104715,-5.35387 0.957009,-1.05705 1.212815,-1.20466 1.822473,-1.05164 0.943027,0.23668 1.114088,1.03622 0.74813,3.49674 -0.517849,3.48178 -0.477903,3.66495 1.17783,5.40081 2.36237,2.4767 6.426295,4.25166 8.740516,3.81751 1.293258,-0.24262 1.578136,-0.70478 1.179312,-1.91323 -0.280899,-0.85114 -0.247682,-1.33074 0.23305,-3.36486 0.871199,-3.6863 2.441724,-8.37033 2.990524,-8.91913 0.301575,-0.30158 0.776093,-0.46435 1.208203,-0.41445 0.60427,0.0698 0.89112,0.43864 1.9022,2.44603 l 1.19062,2.36386 -0.001,3.98614 -0.001,3.98614 -1.52095,4.4724 c -1.90477,5.60104 -3.101949,8.12785 -4.274721,9.02236 -4.722682,3.60217 -13.479103,1.28335 -17.785698,-4.70989 -0.54403,-0.75709 -1.023406,-1.42327 -1.06528,-1.48039 -0.175233,-0.23902 -1.042792,0.76021 -2.747357,3.16434 -3.391171,4.78292 -5.418823,6.57011 -8.879138,7.82614 -5.945064,2.15794 -12.371124,0.0968 -17.971971,-5.76452 -1.023322,-1.07091 -2.855331,-3.2274 -4.071131,-4.79219 -1.2158,-1.5648 -2.613954,-3.09441 -3.107009,-3.39913 -1.140358,-0.70478 -3.483216,-0.92412 -5.46857,-0.51196 -3.985139,0.82731 -11.505367,7.59418 -14.032023,12.62633 l -0.689006,1.37224 1.252081,1.25208 c 3.071294,3.0713 7.015073,3.56694 18.715827,2.35213 7.070602,-0.73408 10.278122,-0.47338 12.504194,1.01634 3.936789,2.63457 4.481328,8.7191 1.732443,19.35789 -0.855411,3.31063 -2.26861,6.63137 -3.772028,8.86354 -4.304111,6.39043 -14.689191,12.67302 -24.355234,14.73401 -3.383233,0.72138 -10.253984,0.62819 -14.155209,-0.19199 -3.880148,-0.81575 -5.5569147,-0.80251 -8.3749576,0.0661 -13.3414183,4.11233 -26.8723164,1.5751 -32.5031684,-6.09478 -0.654844,-0.89198 -1.728598,-2.60684 -2.386119,-3.8108 -0.657522,-1.20396 -1.305325,-2.16914 -1.439563,-2.14485 -0.134238,0.0243 -0.911152,1.57211 -1.726475,3.43958 -3.028363,6.93639 -4.501308,9.16798 -9.863828,14.94422 -3.652019,3.93378 -6.143659,6.29421 -7.684325,7.27967 -0.554181,0.35448 -5.25715,2.34999 -10.451042,4.43448 -5.193893,2.08449 -10.739951,4.40034 -12.324573,5.14633 -3.258209,1.53385 -4.177176,1.67003 -4.80491,0.71198 z M 27.119787,191.39461 c 4.995886,-0.83206 11.834588,-3.68664 16.819431,-7.02068 2.654331,-1.77532 7.183612,-6.03207 7.507794,-7.05605 0.281306,-0.88855 -0.0143,-1.69098 -0.845802,-2.296 -1.027845,-0.74789 -5.04565,-0.83921 -10.623866,-0.24148 -3.861418,0.41377 -10.141391,0.5447 -14.433609,0.30093 l -1.046886,-0.0594 -1.252624,5.15937 c -2.622154,10.80026 -2.740374,11.39374 -2.324978,11.67156 0.433199,0.28972 2.728068,0.12014 6.20054,-0.4582 z m -14.084656,-4.23309 c 3.477795,-1.73926 5.348119,-3.03633 5.890404,-4.085 0.990741,-1.91588 0.115894,-8.48332 -1.60731,-12.06601 -1.15864,-2.40891 -3.19607,-4.58759 -4.290162,-4.58759 -1.378396,0 -4.2930873,3.63308 -6.506365,8.11001 -1.6209249,3.27874 -2.1387066,4.96786 -2.1369527,6.97124 0.0018,2.05905 0.7286586,3.65386 2.6282114,5.76662 1.6467275,1.83155 2.1599787,1.82224 6.0221743,-0.10927 z m 74.938825,31.37567 c -4.228113,-0.45972 -8.501967,-3.01368 -12.009638,-7.17671 -4.798576,-5.69513 -6.63622,-12.38314 -6.640499,-24.16777 -0.0032,-8.6761 0.863257,-21.43064 1.741446,-25.63612 0.432991,-2.07351 1.340796,-4.30733 1.632212,-4.01634 0.107375,0.10721 0.267137,6.88241 0.355026,15.05599 0.182724,16.99304 0.110959,16.38702 2.52698,21.33894 1.358959,2.78535 1.705332,3.2606 4.1603,5.70827 2.939772,2.93104 5.186281,4.29993 8.032407,4.89449 2.126643,0.44427 8.27509,0.15394 11.295313,-0.53336 4.744937,-1.07977 14.604367,-5.73017 22.773117,-10.74139 8.41499,-5.16228 13.12264,-8.67482 17.31772,-12.92134 l 2.23646,-2.26389 -0.29046,-2.01621 c -0.15976,-1.10891 -0.42357,-2.14931 -0.58625,-2.31199 -0.1935,-0.1935 -2.78793,-0.36196 -7.50225,-0.48713 -9.23897,-0.24531 -11.82069,-0.59983 -14.61037,-2.0063 -1.99074,-1.00368 -3.3261,-2.16372 -3.87054,-3.36238 -1.30054,-2.8633 0.13834,-13.31953 2.56711,-18.65504 0.8919,-1.95932 4.68838,-5.71147 6.85525,-6.77521 4.81942,-2.36591 11.03608,0.51355 16.22648,7.51583 1.46922,1.98211 2.62575,4.12391 4.80481,8.89812 0.5966,1.30713 1.34738,2.65701 1.66839,2.99973 0.55039,0.58761 0.58276,0.85178 0.56805,4.63485 -0.0106,2.72885 -0.16347,4.73091 -0.47801,6.26069 -0.60947,2.96424 -3.68957,13.43008 -4.59036,15.59754 -0.9397,2.26107 -3.15856,5.15754 -6.21528,8.11333 -2.97781,2.87949 -5.80538,5.00943 -12.52109,9.43184 -5.76836,3.79856 -8.88295,5.62716 -13.67238,8.02715 -6.5275,3.27093 -9.46173,4.15268 -15.291653,4.59522 -3.873287,0.29401 -3.770655,0.29402 -6.482291,-8.1e-4 z m 43.953904,-58.72886 c 0.5154,0 0.89297,-0.1335 0.89297,-0.31575 0,-0.5051 -2.75572,-3.03361 -4.01129,-3.68055 -1.64211,-0.8461 -3.89284,-0.81112 -5.646,0.0878 -1.41144,0.72368 -2.77813,1.85628 -2.77813,2.3023 0,0.39015 1.04334,0.99433 2.09776,1.21478 1.2545,0.26229 6.86298,0.61732 7.79105,0.49319 0.41837,-0.0559 1.16251,-0.10174 1.65364,-0.10174 z m 14.0397,58.4638 c -0.62283,-0.88921 -0.0272,-1.81907 2.13277,-3.32969 2.29034,-1.60177 4.97704,-3.63329 10.25279,-7.75251 2.32834,-1.81792 6.2574,-4.84742 8.73125,-6.73221 9.17183,-6.98788 13.52171,-10.92917 17.85232,-16.17543 l 2.18405,-2.64583 -0.14669,-4.49792 c -0.18784,-5.75958 -0.62661,-7.49961 -3.20245,-12.7 -2.8683,-5.79081 -6.40608,-11.50735 -11.13691,-17.99561 -3.96724,-5.441 -14.7641,-19.19567 -22.21944,-28.30647 -3.92961,-4.80219 -8.44784,-10.39812 -10.04052,-12.43542 -1.59267,-2.03729 -4.08326,-5.18708 -5.53464,-6.999532 -2.95372,-3.688538 -6.18219,-8.522172 -10.3748,-15.533051 -1.55227,-2.595722 -3.31363,-5.231031 -3.91412,-5.856243 l -1.0918,-1.136748 0.0395,-3.130247 c 0.0455,-3.609701 0.51822,-7.704485 1.03319,-8.949902 0.4773,-1.154347 1.48471,-1.151988 3.20023,0.0075 2.36016,1.595172 6.97771,5.520119 7.35692,6.253426 0.20616,0.398667 0.5507,1.727777 0.76564,2.953578 0.54002,3.079616 1.24452,4.805692 3.02282,7.40611 1.89357,2.76898 13.91817,17.80845 20.15267,25.205449 6.20362,7.36037 9.0687,10.90964 14.0252,17.37447 7.66747,10.00079 9.39062,12.39035 12.39338,17.18642 4.95747,7.91819 7.05986,12.28371 8.28784,17.20941 0.59183,2.37393 0.62675,2.97279 0.6288,10.7818 0.001,4.54754 0.0236,8.26824 0.0498,8.26823 0.1727,-1.1e-4 2.33922,-4.27331 3.23576,-6.38217 1.32629,-3.1197 1.36774,-4.15891 0.43153,-10.81771 -0.9107,-6.47731 -1.56783,-12.53321 -2.65548,-24.47203 -1.55476,-17.06601 -2.7397,-26.25289 -5.68208,-44.053124 -0.70961,-4.292864 -1.48115,-9.412552 -1.71452,-11.377083 -0.23338,-1.964531 -0.47879,-3.905314 -0.54536,-4.312851 -0.12435,-0.761256 3.04361,-9.225023 4.10802,-10.975311 0.59541,-0.979063 0.78178,-1.025259 1.56696,-0.3884 0.49909,0.404808 0.75003,1.54412 1.99596,9.061979 4.27156,25.774126 5.32878,33.67838 7.14856,53.44584 0.66313,7.20328 1.37628,14.46609 1.58478,16.13958 3.38482,27.16765 4.099,31.12938 6.40152,35.51109 1.66122,3.16131 5.3051,5.99219 8.81528,6.84847 1.85335,0.4521 7.06071,0.45044 9.12813,-0.003 1.79486,-0.39359 4.89479,-1.71576 4.89479,-2.08771 0,-0.31357 -0.8305,-1.39942 -2.42919,-3.1761 -2.09632,-2.32973 -2.42918,-4.34432 -1.6724,-10.12216 1.01979,-7.78593 2.16049,-12.63991 3.60912,-15.35782 0.4392,-0.82403 1.74171,-2.52569 2.89447,-3.78148 1.15275,-1.25579 2.09591,-2.39068 2.09591,-2.52198 0,-0.13131 -0.44648,-0.4569 -0.99218,-0.72355 -1.42889,-0.6982 -1.40841,-1.46391 0.19368,-7.24046 1.59942,-5.76695 1.77612,-6.18359 2.66656,-6.28762 0.59598,-0.0696 10.80487,3.50739 14.29402,5.00838 2.15314,0.92626 2.41243,2.23343 0.88381,4.45565 -0.52018,0.75621 -0.89078,1.51828 -0.82354,1.69348 0.0672,0.17521 0.87979,0.78446 1.80568,1.3539 4.72142,2.90374 19.11273,12.50104 20.68941,13.79738 2.29892,1.89018 4.4668,4.51118 5.54846,6.70818 l 0.84556,1.71745 -0.0232,4.23567 c -0.0231,4.22088 -0.0269,4.24677 -1.09177,7.41068 -0.58771,1.74625 -1.45463,4.54422 -1.92647,6.21771 -1.00227,3.55475 -1.48595,4.58705 -2.69008,5.74128 -2.96308,2.84029 -6.65742,2.53768 -20.57528,-1.68533 -7.79226,-2.36436 -8.4273,-2.52337 -9.30621,-2.33033 -0.42193,0.0927 -1.80896,0.99592 -3.08228,2.00722 -1.27333,1.0113 -2.58303,1.90772 -2.91046,1.99204 -0.32742,0.0843 -0.59531,0.24723 -0.59531,0.36201 0,0.36703 -5.05767,3.50859 -8.14673,5.06032 -4.238,2.12888 -6.54059,2.72358 -10.50639,2.71352 -2.74221,-0.007 -3.4554,-0.10469 -5.23201,-0.71699 -5.43327,-1.87256 -8.8157,-4.37289 -11.39471,-8.42311 -1.36772,-2.14794 -2.20063,-4.15247 -3.21092,-7.7276 -0.48792,-1.72659 -0.99803,-3.25016 -1.13359,-3.38571 -0.15223,-0.15223 -0.42884,0.23875 -0.72346,1.02258 -0.86115,2.29112 -3.60031,7.57578 -5.10707,9.85309 -1.70319,2.57418 -7.66436,8.82361 -11.43054,11.98328 -6.05432,5.07932 -12.05614,8.2431 -27.22695,14.35233 -4.52724,1.82311 -5.8426,2.06486 -6.45757,1.18686 z m 126.41775,-38.64195 c 0.43478,-0.20845 0.82666,-0.56667 0.87083,-0.79605 0.13452,-0.69849 -2.16662,-3.53232 -4.49071,-5.53027 -1.20875,-1.03912 -3.56694,-2.78856 -5.24043,-3.88763 -1.67349,-1.09907 -4.69193,-3.08539 -6.70766,-4.41404 -2.01572,-1.32865 -3.74213,-2.41415 -3.83646,-2.41221 -0.35285,0.007 -0.8064,2.01995 -1.6017,7.10788 -0.45032,2.8809 -0.81876,5.40255 -0.81876,5.60366 0,0.4271 4.48358,1.89611 11.24479,3.68428 4.13831,1.09447 4.70945,1.18294 7.14375,1.10648 1.58626,-0.0498 2.96241,-0.23487 3.43635,-0.4621 z m -27.19959,-6.31493 c 1.1267,-0.687 1.49921,-1.46424 1.46365,-3.05393 -0.0578,-2.58602 -4.28001,-9.70114 -6.4077,-10.79815 -1.15857,-0.59734 -2.67061,-0.47538 -4.38287,0.35351 -2.08062,1.00721 -6.46505,5.49354 -6.46505,6.6153 0,0.58992 3.19155,3.43123 4.70224,4.18623 1.31136,0.65537 7.11319,2.68779 8.65922,3.03337 1.07267,0.23978 1.60693,0.16585 2.43051,-0.33633 z m 0.6122,43.46359 c -2.538,-1.30204 -3.30005,-3.78 -3.11815,-10.13926 0.12704,-4.44148 0.69952,-6.94046 2.27299,-9.92187 0.80734,-1.52975 1.10408,-1.86666 1.70505,-1.9358 0.64531,-0.0743 0.72761,0.003 0.72761,0.68137 0,0.4208 -0.35095,1.94676 -0.77989,3.39101 -1.50205,5.0575 -1.64315,7.48097 -0.55924,9.60559 0.59666,1.16955 0.93854,1.3547 2.5015,1.3547 1.46661,0 2.14528,-0.64961 2.7,-2.58438 0.52347,-1.82578 0.81386,-2.22856 1.53181,-2.12474 1.65353,0.23912 1.57934,4.13625 -0.15682,8.23838 -1.25699,2.96996 -2.08934,3.75584 -4.27887,4.04 -0.8602,0.11163 -1.3984,-0.0163 -2.54599,-0.605 z m 52.97731,-9.91987 c -0.47898,-0.47898 -0.41256,-1.37769 0.51981,-7.0335 0.84221,-5.10889 0.84395,-5.13947 0.51971,-9.14398 -0.93947,-11.60319 -3.35864,-30.91948 -7.44527,-59.44815 -0.86509,-6.03912 -2.0543,-15.08787 -2.6427,-20.10834 -0.58839,-5.02047 -1.36366,-11.211716 -1.72282,-13.75833 -0.9509,-6.742504 -1.40772,-10.542151 -1.73039,-14.39287 -0.29209,-3.485831 -0.52596,-4.257878 -1.79574,-5.928229 -0.42655,-0.561113 -0.65288,-1.185291 -0.63192,-1.742745 0.0391,-1.041029 2.00374,-8.779242 2.5776,-10.152675 0.95028,-2.274353 1.93393,-2.468872 3.7696,-0.745452 1.22735,1.1523 1.45297,1.504262 2.81219,4.386972 0.37738,0.800364 1.23669,2.348177 1.90958,3.439583 1.65856,2.690136 5.91943,10.990649 7.0625,13.758333 2.19474,5.314056 3.7064,11.515668 3.25012,13.333647 -0.36141,1.439976 -1.13484,0.930346 -5.65302,-3.724904 l -4.29948,-4.429919 3e-4,1.1809 c 3.6e-4,1.482294 2.80467,23.172679 5.40352,41.794439 3.32764,23.84383 4.34893,33.29125 4.56206,42.20104 0.17618,7.36519 -0.14343,10.9393 -1.64439,18.38854 -1.90358,9.44743 -3.49557,13.45134 -4.82126,12.12564 z m -369.790585,-7.85226 c -0.353551,-0.56006 -1.439243,-2.61389 -2.412651,-4.56406 -3.521647,-7.05545 -6.052349,-10.82577 -7.739654,-11.53077 -0.822519,-0.34367 -0.996291,-0.32011 -2.34513,0.318 -1.660626,0.7856 -2.458059,0.7301 -4.241544,-0.29518 -1.067947,-0.61393 -1.108676,-0.68725 -1.271625,-2.28916 -0.09259,-0.9102 -0.191422,-3.18267 -0.219632,-5.04993 -0.06677,-4.41944 -0.07487,-4.41083 4.145207,-4.40872 4.005873,0.002 4.673366,0.22869 6.844003,2.32427 2.294517,2.21517 4.107693,5.03923 6.236061,9.7128 0.927793,2.03729 1.787725,3.80933 1.91096,3.93787 0.252034,0.26289 0.479296,-0.52218 2.186418,-7.55292 1.434893,-5.90957 2.34077,-7.97101 4.413789,-10.04412 3.35407,-3.35421 5.693255,-3.41758 8.557519,-0.23183 1.787764,1.98842 2.399142,3.76613 2.411471,7.01183 0.0084,2.20197 -0.09065,2.86615 -0.590211,3.95909 -0.724923,1.58598 -1.29827,2.25862 -1.925215,2.25862 -0.360259,0 -0.539185,-0.35374 -0.769527,-1.52135 -0.853677,-4.32734 -1.499658,-5.42661 -3.375108,-5.74346 -1.349821,-0.22805 -2.31792,0.23768 -3.594729,1.72934 -1.46555,1.71217 -2.190973,3.96682 -3.633441,11.29293 -0.737494,3.74564 -1.524895,7.46509 -1.749779,8.26546 -0.504097,1.79408 -1.38891,3.43958 -1.849528,3.43958 -0.189659,0 -0.634104,-0.45823 -0.987654,-1.01829 z m 164.50239,-8.6428 c -2.168167,-1.29962 -2.879161,-4.39753 -2.458444,-10.71183 0.27363,-4.10675 0.788459,-7.08704 1.673277,-9.68642 0.729844,-2.1441 1.998333,-4.72852 2.778162,-5.66021 0.472877,-0.56497 0.593586,-0.60318 0.833411,-0.26378 0.371803,0.52616 0.159356,2.15604 -0.931152,7.14375 -1.240928,5.67569 -1.324503,6.54036 -0.741102,7.66755 0.262085,0.50638 0.800933,1.10062 1.197438,1.32054 0.653241,0.36232 0.802331,0.35602 1.588107,-0.0671 0.476952,-0.25686 1.343163,-1.13667 1.924913,-1.95514 1.919035,-2.6999 2.075955,-2.84335 2.728355,-2.4942 1.24188,0.66464 0.59022,4.27221 -1.52848,8.46158 -1.918612,3.79375 -4.492825,6.91397 -5.698398,6.90707 -0.14552,-8.3e-4 -0.76026,-0.29862 -1.366087,-0.66176 z m 67.908795,-5.0812 c -0.96384,-0.36048 -3.70323,-3.07884 -4.27726,-4.24444 -0.59406,-1.20625 -0.61556,-1.46699 -0.56561,-6.86202 0.061,-6.59035 0.26851,-7.96205 1.79757,-11.88285 1.50226,-3.85209 2.35089,-5.4935 3.6755,-7.10918 1.58634,-1.93491 1.88929,-2.07902 2.68915,-1.27916 0.63636,0.63636 0.36201,2.48573 -0.76885,5.18264 -2.83543,6.76205 -3.31916,8.06632 -3.74594,10.1 -0.39313,1.87329 -0.41427,2.36365 -0.1314,3.04658 0.45087,1.08848 1.72865,2.12614 2.61816,2.12614 0.96004,0 2.28692,-1.38824 2.81876,-2.94911 0.45079,-1.32299 1.33202,-2.44434 1.72841,-2.19936 0.13788,0.0852 0.43979,0.52062 0.67091,0.96756 1.22477,2.36844 -2.13496,13.00595 -4.64122,14.69492 -0.90716,0.61133 -1.17105,0.66901 -1.86818,0.40828 z M -14.465439,174.06972 c -1.256422,-0.36369 -2.847203,-2.33013 -3.347181,-4.13761 -0.9476,-3.42569 -1.265423,-11.08322 -0.592424,-14.27367 0.525045,-2.48904 2.182745,-7.91723 2.833293,-9.27771 0.61188,-1.27961 1.231432,-1.44304 2.067688,-0.54542 0.769737,0.82621 0.691803,1.80428 -0.553506,6.94638 -1.786573,7.37707 -1.529437,10.76236 0.863012,11.36191 1.772406,0.44416 2.344488,-0.0938 4.0478061,-3.8061 0.1709608,-0.3726 0.5267348,-0.66146 0.8147018,-0.66146 1.2004605,0 1.5241047,2.8998 0.7921236,7.09729 -0.7782772,4.46297 -2.0754569,6.69102 -4.2464535,7.29376 -1.206763,0.33503 -1.529624,0.33535 -2.67906,0.003 z m -75.117607,-17.94291 c -0.916937,-0.39492 -1.931772,-1.82436 -2.42354,-3.41367 -0.680932,-2.20066 -0.674229,-12.38342 0.0097,-14.80544 0.638995,-2.26274 3.476318,-8.3936 4.458299,-9.63345 2.307839,-2.91389 2.364346,0.73784 0.116272,7.514 -1.901973,5.73294 -2.055355,7.49531 -0.764663,8.786 1.558688,1.55869 3.071166,1.09112 6.295788,-1.94627 1.246177,-1.17383 2.384586,-2.13423 2.529797,-2.13423 0.809901,0 0.895825,2.4384 0.214438,6.08542 -0.663531,3.55144 -3.618775,7.91179 -6.181223,9.12017 -1.190991,0.56164 -3.422802,0.78586 -4.254913,0.42747 z m 360.877756,-12.7011 c -0.99043,-0.60394 -1.99257,-1.87851 -2.61732,-3.32883 -0.67802,-1.57401 -0.81561,-6.0143 -0.28159,-9.08774 0.96085,-5.52995 5.499,-13.82226 7.04249,-12.86833 0.48182,0.29778 0.053,2.05199 -1.64802,6.74253 -2.28978,6.31381 -2.31471,8.31397 -0.11662,9.35703 1.78081,0.84505 2.83811,0.40412 3.93075,-1.63923 0.61325,-1.14686 1.22593,-1.34328 1.83681,-0.58886 0.66576,0.82217 0.61274,2.06179 -0.19103,4.46607 -0.80476,2.40725 -2.08551,4.77646 -3.42216,6.33051 -0.9063,1.05371 -1.05329,1.12441 -2.33561,1.12349 -0.88011,-6.4e-4 -1.66437,-0.18144 -2.1977,-0.50664 z m -286.905132,-5.57313 c -0.625081,-0.39662 0.217283,-1.05227 4.101041,-3.19199 5.3570791,-2.95144 16.848121,-11.2392 20.7921861,-14.99608 l 2.0067749,-1.91154 -0.610878,-1.79263 c -0.9213833,-2.70381 -0.7656482,-5.68026 0.417178,-7.97324 0.273258,-0.52973 0.865034,-1.66453 1.315057,-2.52178 0.450024,-0.85725 0.818225,-1.95439 0.818225,-2.43809 0,-0.61487 0.162643,-0.96649 0.540627,-1.16878 1.312329,-0.70233 5.450151,1.42413 7.75114,3.98338 2.271565,2.52653 4.576616,8.55981 4.057506,10.62018 -0.215662,0.85597 -1.638257,2.75559 -2.593806,3.46355 -0.908086,0.6728 -2.928959,0.65571 -5.89993,-0.0499 l -2.23042,-0.52973 -3.392246,3.40382 c -2.5955191,2.60437 -4.1068788,3.86703 -6.4349549,5.37605 -6.6833726,4.33204 -14.2959967,8.41939 -17.5568131,9.42656 -2.013828,0.622 -2.499015,0.66928 -3.080687,0.30021 z m 35.718751,-24.06254 c 0,-0.13496 -0.318054,-0.49556 -0.706787,-0.80134 -0.512165,-0.40287 -0.785375,-0.47584 -0.992188,-0.265 -0.20516,0.20915 -0.109787,0.43444 0.339224,0.80133 0.660556,0.53975 1.359751,0.67602 1.359751,0.26501 z m -4.762501,-4.14956 c 0,-1.04323 -0.369444,-1.13902 -1.239718,-0.32144 -0.725372,0.68145 -0.780508,1.33544 -0.164521,1.95143 0.420737,0.42073 0.476789,0.4121 0.926042,-0.14271 0.263009,-0.3248 0.478197,-0.99408 0.478197,-1.48728 z m 213.717192,20.51333 c -0.25466,-0.14833 -0.46302,-0.42428 -0.46302,-0.61323 0,-0.38309 0.49394,-0.61281 5.42396,-2.52246 1.89177,-0.73278 4.74927,-2.05831 6.35,-2.94564 3.62423,-2.00899 12.78283,-8.10025 15.61042,-10.38228 2.25759,-1.822 7.01146,-6.59666 7.01146,-7.04213 0,-0.14704 -0.62356,-0.35006 -1.38569,-0.45116 -1.00419,-0.13321 -1.58692,-0.38506 -2.11666,-0.9148 -0.71243,-0.71243 -0.73095,-0.80707 -0.72951,-3.7279 0.002,-3.733527 0.21093,-4.48648 1.95389,-7.035914 1.92705,-2.818705 1.97827,-2.936544 2.29105,-5.270784 0.41417,-3.090886 0.68841,-3.787092 1.49175,-3.787092 0.98789,0 3.40978,1.388524 5.43119,3.113819 4.82284,4.116347 8.73599,11.675131 8.32464,16.080191 -0.28906,3.09543 -1.79831,5.94141 -3.15081,5.94141 -0.60504,0 -2.94599,-1.07776 -5.70597,-2.62698 -0.77073,-0.43262 -1.54464,-0.72738 -1.71979,-0.65502 -0.17516,0.0724 -1.15191,1.22223 -2.17055,2.55527 -2.97969,3.8993 -6.24123,7.04612 -9.48035,9.14688 -3.38928,2.19815 -13.86278,7.56868 -17.40014,8.92233 -2.28954,0.87615 -8.05708,2.51207 -8.79,2.49322 -0.17207,-0.004 -0.52121,-0.1294 -0.77587,-0.27773 z m 44.78073,-28.0919 c 0,-0.44278 -2.55397,-3.545042 -3.08683,-3.749518 -0.46588,-0.178776 -1.1465,0.269171 -1.1465,0.754564 0,0.39342 1.40032,1.737774 2.7489,2.639034 1.14555,0.76558 1.48443,0.84683 1.48443,0.35592 z m -8.64194,-3.28132 c 1.31518,-0.217296 1.78365,-1.071133 1.13275,-2.06454 -0.7259,-1.107855 -1.95216,-0.868967 -2.82993,0.551297 -0.92853,1.502382 -0.50776,1.877545 1.69718,1.513243 z m -53.41971,27.05193 c -1.17596,-0.51214 -2.71217,-2.44039 -3.16855,-3.97718 -0.89413,-3.01086 -1.06547,-9.88968 -0.35624,-14.30221 0.2393,-1.48883 3.0065,-10.71457 3.8688,-12.898439 0.34936,-0.884796 0.49272,-0.992188 1.32445,-0.992188 h 0.93269 l -0.14623,2.579688 c -0.0965,1.702393 -0.51145,4.058659 -1.22016,6.928599 -1.28173,5.19047 -1.69875,7.98777 -1.45958,9.79071 0.14962,1.12787 0.35422,1.49679 1.32784,2.39424 1.25527,1.15707 1.62054,1.25019 2.69729,0.68768 1.20271,-0.62833 2.11184,-1.79533 2.88556,-3.70405 0.85345,-2.10539 1.48913,-2.68406 2.07774,-1.8914 0.58223,0.78407 0.49487,4.37916 -0.16422,6.75754 -0.62285,2.24765 -2.63444,6.30547 -3.76301,7.59084 -1.14877,1.30838 -3.2015,1.74816 -4.83638,1.03617 z m -94.75704,-1.27991 c 0.0843,-0.76399 0.34003,-2.00179 0.56829,-2.75069 l 0.41502,-1.36162 2.70987,-1.18535 c 1.49044,-0.65195 4.31723,-1.75235 6.28176,-2.44533 1.96453,-0.69298 4.01361,-1.4816 4.55352,-1.7525 1.85198,-0.92922 3.34363,-0.4206 3.772,1.28618 0.29484,1.17473 -2.19039,4.1146 -3.76631,4.45532 -3.08082,0.66609 -9.16905,2.81795 -12.02709,4.25092 -2.50513,1.25603 -2.69629,1.21814 -2.50706,-0.49693 z m -68.870897,-0.13493 c -0.363802,-0.0628 -0.810287,-0.23645 -0.992188,-0.38584 -0.713222,-0.58577 -0.295438,-0.98833 1.5875,-1.52963 8.204204,-2.35852 14.488332,-5.59117 20.234073,-10.4087 2.925377,-2.45279 8.953705,-9.62193 11.185199,-13.301905 1.318212,-2.173875 3.096683,-3.8688 5.088297,-4.849268 2.463119,-1.21259 3.928555,-1.197781 6.718962,0.0679 1.182483,0.536352 2.453736,0.975186 2.825009,0.975186 1.030948,0 2.16664,-1.603877 3.372284,-4.7625 1.685513,-4.415813 2.012721,-5.026507 2.695651,-5.03118 0.37573,-0.0026 0.9455,0.398917 1.52966,1.077867 0.85419,0.992788 1.06252,1.093897 2.5277,1.226754 1.42118,0.128869 1.67255,0.0758 2.28573,-0.482554 0.40627,-0.369949 0.92726,-1.367014 1.26979,-2.430122 0.67012,-2.079828 1.63301,-3.400938 2.12565,-2.916442 0.21607,0.212503 0.28227,1.206842 0.2137,3.210135 -0.0989,2.889011 -0.10567,2.915013 -1.48562,5.691098 -2.20795,4.441806 -3.86554,5.454399 -7.56881,4.623659 l -1.69728,-0.380744 -0.993449,1.698281 c -2.599573,4.443895 -4.695615,6.350115 -6.688544,6.082805 -0.540931,-0.0725 -1.913087,-0.50413 -3.049236,-0.95907 -1.230667,-0.49278 -2.541339,-0.82716 -3.242272,-0.82716 -1.014404,0 -1.342844,0.15329 -2.383262,1.11232 -0.663694,0.61177 -2.058682,2.24888 -3.099972,3.63802 -3.758446,5.01397 -8.923664,10.20555 -12.715984,12.78086 -2.282013,1.54969 -11.532342,5.01103 -15.244671,5.70435 -1.976377,0.36911 -3.701992,0.51332 -4.497917,0.37588 z m -70.292397,-1.63465 c -1.787118,-0.81141 -2.038518,-1.4291 -1.868597,-4.59114 0.201517,-3.75 1.959434,-9.08724 3.778616,-11.47231 0.797597,-1.0457 2.655621,-1.67999 4.921192,-1.67999 1.312557,0 1.65392,0.10919 2.399373,0.76752 2.347341,2.07298 3.2332738,5.0143 2.606949,8.65513 -0.789957,4.59203 -3.0078,7.02207 -7.672848,8.40697 -1.855358,0.5508 -2.805033,0.53115 -4.164685,-0.0862 z m 6.518319,-6.70522 c 0.885357,-0.35959 1.592696,-0.8495 1.824921,-1.26395 0.860649,-1.53599 -0.53652,-3.96884 -2.489712,-4.33526 -0.732364,-0.1374 -1.25479,-0.0347 -2.194006,0.43147 -1.550845,0.76968 -2.41283,2.1928 -2.419025,3.99377 -0.0037,1.06702 0.08894,1.3028 0.59096,1.50458 1.066924,0.42886 3.184804,0.27946 4.686862,-0.33061 z m -44.889845,1.4246 c -1.48995,-1.07931 -2.125454,-2.55867 -2.494919,-5.80782 -0.325732,-2.86454 -0.01191,-8.81104 0.601624,-11.40012 0.649444,-2.740606 3.549233,-7.692354 4.250797,-7.258764 0.427486,0.264201 0.07317,3.009119 -0.8411,6.516125 -1.066945,4.092629 -1.246664,5.868659 -0.721135,7.126429 0.330818,0.79176 0.58472,1.00886 1.347132,1.15189 1.142477,0.21433 2.1904,-0.12591 4.206,-1.3656 0.843391,-0.51873 1.703046,-0.87805 1.910345,-0.79851 0.996723,0.38248 0.68625,4.18047 -0.547955,6.70309 -0.779134,1.5925 -3.466489,4.51635 -4.747911,5.16575 -1.542431,0.78167 -1.843555,0.77837 -2.962878,-0.0325 z m 231.02538,-7.15802 c -0.92005,-0.37298 -2.46215,-2.31103 -2.78803,-3.50387 -0.41118,-1.50512 -0.1529,-7.754805 0.40794,-9.870725 0.85767,-3.235835 3.47051,-7.831732 4.66866,-8.21201 0.66832,-0.212117 1.55811,0.537909 1.55139,1.307705 -0.003,0.304868 -0.43456,1.566336 -0.95976,2.803263 -2.51748,5.92903 -3.10318,8.318967 -2.381,9.715517 0.49086,0.94921 0.88249,1.1324 2.42089,1.1324 1.49542,0 2.65442,-0.93493 3.05791,-2.46671 0.63298,-2.402947 1.58874,-2.951103 2.27631,-1.30552 0.59425,1.42223 0.31858,3.37353 -0.80368,5.68872 -1.18049,2.43533 -2.35215,3.84087 -3.71941,4.46187 -1.12323,0.51016 -2.80986,0.62288 -3.73122,0.24936 z M 54.92864,109.52734 c -1.228293,-0.36757 -2.255532,-1.55585 -2.716875,-3.14281 -0.628305,-2.1613 -0.363537,-7.192398 0.509385,-9.679318 0.893323,-2.545043 2.665438,-5.998947 3.657829,-7.129218 1.647442,-1.876332 1.731589,-0.330366 0.227425,4.178272 -1.385877,4.154079 -1.647949,5.526753 -1.301097,6.814864 0.354127,1.31513 1.117055,1.82462 2.732227,1.82462 2.174682,0 2.915105,-0.65867 4.238249,-3.770309 0.777785,-1.829117 2.017964,-1.096947 2.017964,1.191354 0,3.319895 -2.736529,8.422965 -5.12448,9.556125 -0.968459,0.45956 -2.97969,0.53375 -4.240627,0.15642 z M -30.42709,98.201427 c 0,-0.698353 0.561663,-1.12098 3.836459,-2.886772 6.619607,-3.569336 17.0633482,-10.675079 19.6831301,-13.392065 l 0.897713,-0.931022 -0.7654213,-0.212969 c -0.4209818,-0.117134 -3.8015148,-0.210425 -7.5122968,-0.207314 -5.829901,0.0049 -7.244691,0.08962 -10.40969,0.623435 -2.561629,0.43205 -3.746462,0.534132 -3.941044,0.33955 -0.363525,-0.363525 0.07546,-1.961366 1.563157,-5.689663 1.359472,-3.406952 3.097336,-6.821381 3.791809,-7.449871 0.696824,-0.630617 4.115655,-0.880751 14.8166017,-1.084037 10.1687955,-0.193176 13.3224761,0.02109 14.0800344,0.956639 0.8240601,1.017671 0.6013021,2.387678 -0.8384027,5.15635 -3.6057414,6.934141 -9.4600443,14.281749 -13.0514622,16.380607 -0.6139161,0.358779 -3.9141802,1.923913 -7.3339192,3.478077 -10.814071,4.914652 -14.816668,6.243494 -14.816668,4.919055 z m 44.732992,-1.474036 c -0.381371,-0.459525 0.345259,-2.754379 2.355674,-7.439723 1.541246,-3.59193 1.983136,-4.166007 3.685055,-4.787419 4.281227,-1.563178 5.080041,-1.999662 6.171665,-3.37229 1.352059,-1.700104 2.382938,-3.903004 2.273028,-4.857267 -0.06603,-0.573265 -0.254147,-0.762045 -0.877787,-0.880867 -1.082999,-0.206342 -1.836845,0.106179 -3.244123,1.344915 -0.657802,0.57902 -1.315927,1.052764 -1.4625,1.052764 -0.397046,0 -0.0428,-4.494181 0.446568,-5.665397 0.568394,-1.36036 1.195516,-2.096819 2.833637,-3.32768 1.221395,-0.917738 1.595978,-1.06109 2.772679,-1.06109 2.106983,0 3.329725,1.285546 4.088358,4.29835 0.351134,1.39448 0.01177,3.037265 -1.298345,6.284983 -0.440268,1.091407 -0.703863,2.018721 -0.585766,2.060698 0.118097,0.04198 0.855826,-0.178273 1.639399,-0.489447 2.58945,-1.028326 12.16976,-4.208325 18.754885,-6.225322 5.384859,-1.649361 24.851038,-7.851248 29.104168,-9.272532 2.092233,-0.699169 2.298326,-0.708403 2.877792,-0.128937 0.301583,0.301582 0.621564,0.840111 0.71107,1.196732 0.247614,0.986573 -0.957444,3.385827 -3.132314,6.236391 -1.561201,2.04624 -2.178596,2.639302 -3.366965,3.234269 -0.800364,0.400708 -5.384271,1.929878 -10.186458,3.398154 -24.208277,7.401717 -30.898981,9.763796 -49.741669,17.56075 -3.239255,1.340379 -3.377503,1.370793 -3.818051,0.839965 z M 223.89042,89.11167 c -0.57915,-0.579148 -0.35263,-1.481024 0.54239,-2.159512 0.47295,-0.358522 2.18128,-1.362677 3.79629,-2.231455 5.80295,-3.121622 12.95072,-7.95836 12.73015,-8.614204 -0.0739,-0.219714 -2.35747,-0.300038 -8.28116,-0.291286 -7.6577,0.01131 -8.32893,0.05091 -10.52887,0.621113 -2.33696,0.605717 -2.35351,0.606227 -3.04271,0.09366 -0.38113,-0.283451 -0.72035,-0.741546 -0.75382,-1.017988 -0.0335,-0.276442 1.09763,-2.824341 2.51354,-5.661997 2.88209,-5.776018 2.96019,-5.860115 5.88169,-6.332505 1.94227,-0.314054 20.6676,-0.349025 23.12295,-0.04318 1.71338,0.21342 2.54163,0.88072 2.54163,2.047721 0,3.720217 -6.99846,14.431153 -12.43542,19.032022 -2.07859,1.758957 -3.79619,2.610281 -6.08541,3.016229 -0.94589,0.167734 -3.24641,0.654601 -5.11228,1.081927 -3.76166,0.861505 -4.42462,0.923809 -4.88897,0.459455 z M -79.284797,84.598582 c -0.274481,-0.444119 -0.155641,-3.284026 0.162284,-3.878073 0.313599,-0.585966 1.118029,-0.905382 9.140214,-3.629326 7.266917,-2.467491 11.821824,-3.801596 12.979428,-3.801596 2.107185,0 1.841138,3.263767 -0.372239,4.566495 -0.43495,0.255999 -1.782627,0.754418 -2.994837,1.107597 -1.21221,0.35318 -5.299644,1.650587 -9.083185,2.883128 -9.298666,3.029167 -9.606908,3.11544 -9.831665,2.751775 z M 148.0206,83.321462 c -0.0975,-0.157781 0.0989,-1.358198 0.43648,-2.667593 0.73119,-2.836165 0.61839,-2.752415 5.29155,-3.928792 4.5604,-1.147996 12.23652,-3.278026 15.75813,-4.372694 1.62335,-0.504608 3.12527,-0.850805 3.3376,-0.769327 0.50296,0.193005 0.98689,1.273158 0.98689,2.202786 0,1.061529 -1.46545,3.116935 -2.74066,3.843973 -0.61979,0.353365 -1.78201,0.699691 -2.67549,0.797264 -0.86883,0.09488 -5.62113,1.299478 -10.56067,2.676884 -4.93954,1.377406 -9.13298,2.504374 -9.31876,2.504374 -0.18578,0 -0.41756,-0.129094 -0.51507,-0.286875 z M -83.343446,76.26615 c 8.12e-4,-1.206924 0.787364,-4.383392 1.197676,-4.836782 1.121235,-1.23895 19.12501,-7.289891 23.207919,-7.800017 1.393659,-0.174126 1.500153,-0.145996 1.929821,0.509761 0.317625,0.484757 0.408092,0.981665 0.299994,1.64779 -0.301731,1.859353 -1.610826,2.652683 -6.517293,3.949575 -4.776813,1.26262 -12.348216,3.905886 -15.935998,5.563443 -3.292526,1.52115 -4.182631,1.726798 -4.182119,0.96623 z M 144.57607,75.585173 c -0.1984,-0.517022 1.12202,-4.494459 1.76227,-5.308407 0.30367,-0.386055 0.896,-0.879741 1.31629,-1.097079 0.71828,-0.371438 13.11543,-3.934918 19.82662,-5.699035 l 3.04271,-0.799812 0.46302,0.571185 c 0.63762,0.786578 0.57973,1.88733 -0.17788,3.382418 -1.06573,2.103115 -2.3378,3.035806 -5.06506,3.713737 -3.21045,0.79804 -11.271,2.994166 -16.21471,4.417753 -4.45363,1.282466 -4.75629,1.332525 -4.95326,0.81924 z m 116.9315,-4.799872 c -0.22826,-0.594826 0.31355,-3.783552 0.72766,-4.282521 0.51102,-0.615747 2.1353,-1.362343 5.75935,-2.647276 1.8346,-0.650471 4.91442,-1.770466 6.84405,-2.488878 4.06432,-1.513168 4.82432,-1.59582 5.6005,-0.609065 0.73254,0.93127 0.69108,1.796896 -0.13812,2.884036 -0.79793,1.046148 -2.88978,2.50424 -3.5927,2.50424 -0.60433,0 -3.63743,1.058171 -8.94997,3.12242 -4.84597,1.882955 -6.00264,2.163674 -6.25077,1.517044 z"
       id="path1" /></g></svg>
